<?xml version="1.0" encoding="UTF-8" standalone="no"?>
<svg
   id="Capa_1"
   enable-background="new 0 0 512.054 512.054"
   height="256"
   viewBox="0 0 256.027 256.027"
   width="256"
   version="1.1"
   sodipodi:docname="logo.svg"
   inkscape:version="1.4.2 (ebf0e940d0, 2025-05-08)"
   xmlns:inkscape="http://www.inkscape.org/namespaces/inkscape"
   xmlns:sodipodi="http://sodipodi.sourceforge.net/DTD/sodipodi-0.dtd"
   xmlns="http://www.w3.org/2000/svg"
   xmlns:svg="http://www.w3.org/2000/svg">
  <defs
     id="defs14" />
  <sodipodi:namedview
     id="namedview14"
     pagecolor="#ffffff"
     bordercolor="#000000"
     borderopacity="0.25"
     inkscape:showpageshadow="2"
     inkscape:pageopacity="0.0"
     inkscape:pagecheckerboard="0"
     inkscape:deskcolor="#d1d1d1"
     inkscape:zoom="2.2519531"
     inkscape:cx="255.77797"
     inkscape:cy="256"
     inkscape:window-width="3440"
     inkscape:window-height="1371"
     inkscape:window-x="0"
     inkscape:window-y="0"
     inkscape:window-maximized="1"
     inkscape:current-layer="Capa_1" />
  <path
     d="m 167.14332,195.87024 c -7.96901,0 -14.42951,-6.46051 -14.42951,-14.42952 0,-7.96901 6.4605,-14.42952 14.42951,-14.42952 20.11453,0 36.47855,-16.36452 36.47855,-36.47854 V 54.904567 c 0,-7.96901 6.46001,-14.429518 14.42952,-14.429518 7.96951,0 14.42951,6.460508 14.42951,14.429518 v 75.628093 c 0,36.02754 -29.31053,65.33758 -65.33758,65.33758 z"
     fill="#a3defe"
     id="path1"
     style="stroke-width:0.500001" />
  <path
     d="m 231.7114,140.55917 c -6.77651,-11.41001 -16.48852,-20.87852 -28.08953,-27.35953 v 17.33302 c 0,12.72702 -6.55601,23.94603 -16.46302,30.47504 4.199,4.729 6.75651,10.94651 6.75651,17.75252 v 11.36951 c 19.79252,-8.92551 34.37204,-27.43003 37.79604,-49.57056 z"
     fill="#7acefa"
     id="path2"
     style="stroke-width:0.500001" />
  <path
     d="m 218.05139,252.27731 c -7.96901,0 -14.42952,-6.46051 -14.42952,-14.42952 v -59.08707 c 0,-20.11403 -16.36452,-36.47855 -36.47855,-36.47855 H 88.884228 c -36.027044,0 -65.33758,-29.31003 -65.33758,-65.337576 V 54.904567 c 0,-7.96901 6.460008,-14.429518 14.429518,-14.429518 7.96901,0 14.429518,6.460508 14.429518,14.429518 v 22.040027 c 0,20.114525 16.36452,36.478546 36.478544,36.478546 h 78.259092 c 36.02705,0 65.33758,29.31003 65.33758,65.33758 v 59.08707 c 0,7.96901 -6.46,14.42952 -14.42951,14.42952 z"
     fill="#89d47f"
     id="path3"
     style="stroke-width:0.500001" />
  <path
     d="M 52.405684,76.944594 V 54.904567 c 0,-7.96901 -6.460508,-14.429518 -14.429518,-14.429518 -7.96951,0 -14.429518,6.460508 -14.429518,14.429518 v 22.040027 c 0,0.062 0.002,0.123 0.0025,0.185 h 28.861036 c 0,-0.062 -0.0045,-0.123 -0.0045,-0.185 z"
     fill="#5ec783"
     id="path4"
     style="stroke-width:0.500001" />
  <path
     d="m 103.87725,113.42364 h 48.27256 v 28.85853 h -48.27256 z"
     fill="#5ec783"
     id="path5"
     style="stroke-width:0.500001" />
  <path
     d="m 128.01378,252.27731 c -7.96901,0 -14.42952,-6.46051 -14.42952,-14.42952 V 53.991566 c 0,-7.96901 6.46051,-14.429518 14.42952,-14.429518 7.96901,0 14.42951,6.460508 14.42951,14.429518 V 237.84779 c 0,7.96901 -6.4605,14.42952 -14.42951,14.42952 z"
     fill="#e8899e"
     id="path6"
     style="stroke-width:0.500001" />
  <path
     d="M 28.033654,9.2540113 5.6026266,44.736555 c -4.9515061,7.832009 0.6765008,18.048022 9.9425124,18.048022 h 44.862055 c 9.266011,0 14.893518,-10.215513 9.942512,-18.048022 L 47.918678,9.2540113 c -4.617005,-7.3030089 -15.268518,-7.3030089 -19.885024,0 z"
     fill="#89d47f"
     id="path7"
     style="stroke-width:0.500001" />
  <path
     d="m 128.01378,39.562548 c -7.96901,0 -14.42952,6.460508 -14.42952,14.429518 v 23.138028 h 28.85903 V 53.992066 c 0,-7.96951 -6.4605,-14.429518 -14.42951,-14.429518 z"
     fill="#de5c6e"
     id="path8"
     style="stroke-width:0.500001" />
  <path
     d="m 218.05139,40.475549 c -7.96951,0 -14.42952,6.460508 -14.42952,14.429518 V 77.130094 H 232.4804 V 54.905067 c 5e-4,-7.96901 -6.4595,-14.429518 -14.42901,-14.429518 z"
     fill="#7acefa"
     id="path9"
     style="stroke-width:0.500001" />
  <path
     d="M 118.07126,9.2540113 95.640237,44.736555 c -4.951006,7.832009 0.6765,18.048022 9.942513,18.048022 h 44.86205 c 9.26601,0 14.89352,-10.215513 9.94252,-18.048022 L 137.95629,9.2540113 c -4.61701,-7.3030089 -15.26852,-7.3030089 -19.88503,0 z"
     fill="#e8899e"
     id="path10"
     style="stroke-width:0.500001" />
  <path
     d="M 208.10887,9.2540113 185.67785,44.736555 c -4.95101,7.832009 0.6765,18.048022 9.94251,18.048022 h 44.86205 c 9.26601,0 14.89352,-10.215513 9.94252,-18.048022 L 227.9939,9.2540113 c -4.61701,-7.3030089 -15.26852,-7.3030089 -19.88503,0 z"
     fill="#a3defe"
     id="path11"
     style="stroke-width:0.500001" />
  <path
     d="m 113.58426,157.30469 h 28.85853 v 48.27256 h -28.85853 z"
     fill="#de5c6e"
     id="path12"
     style="stroke-width:0.500001" />
  <path
     d="m 37.976166,252.27731 c -7.96901,0 -14.429518,-6.46001 -14.429518,-14.42952 v -5.49951 c 0,-36.02654 29.310036,-65.33708 65.33758,-65.33708 h 78.259092 c 7.96951,0 14.42952,6.46001 14.42952,14.42952 0,7.96951 -6.46001,14.42952 -14.42952,14.42952 H 88.884228 c -20.114524,0 -36.478544,16.36402 -36.478544,36.47804 v 5.49951 c 0,7.96951 -6.460008,14.42952 -14.429518,14.42952 z"
     fill="#a3defe"
     id="path13"
     style="stroke-width:0.500001" />
  <path
     d="M 253.59493,42.733052 231.1639,7.2500088 C 228.3044,2.7270033 223.40239,0.027 218.05139,0.027 c -5.35101,0 -10.25302,2.7000033 -13.11252,7.2230088 L 182.50784,42.733052 c -3.0665,4.851006 -3.2435,10.747513 -0.4745,15.774519 2.76901,5.026507 7.84801,8.02751 13.58702,8.02751 h 4.2515 v 51.397059 c -9.74701,-5.2655 -20.89452,-8.25801 -32.72854,-8.25801 H 146.1933 V 66.535581 h 4.252 c 6.73851,0 12.67352,-4.319505 14.76702,-10.748513 0.6415,-1.969002 -0.435,-4.085505 -2.4045,-4.726506 -1.968,-0.643 -4.08551,0.434001 -4.72651,2.404503 -0.8375,2.570003 -3.3395,5.571007 -7.63601,5.571007 h -44.86255 c -2.964,0 -5.587508,-1.550002 -7.01801,-4.146505 -1.430002,-2.596003 -1.338501,-5.642007 0.2455,-8.14751 l 22.43103,-35.483043 c 1.4985,-2.3710032 3.967,-3.7310048 6.77251,-3.7310048 2.805,0 5.274,1.3600016 6.7725,3.7310048 l 17.93803,28.375034 c 1.1075,1.750503 3.423,2.272003 5.174,1.166002 1.7505,-1.107002 2.27251,-3.423504 1.166,-5.174006 L 141.12629,7.2510088 C 138.26679,2.7280033 133.36528,0.028 128.01378,0.028 c -5.35101,0 -10.25302,2.7000033 -13.11252,7.2230088 L 92.470233,42.733052 c -3.066504,4.851006 -3.243504,10.747513 -0.474501,15.774519 2.769004,5.026507 7.84801,8.02751 13.587018,8.02751 h 4.252 V 109.67363 H 88.884728 c -18.046522,0 -32.72854,-14.682014 -32.72854,-32.729036 V 66.535081 h 4.251506 c 5.738507,0 10.818013,-3.001003 13.587016,-8.02751 2.769004,-5.027006 2.592003,-10.923513 -0.4745,-15.774519 L 51.089182,7.2500088 C 48.229179,2.7270033 43.327173,0.027 37.976166,0.027 32.62516,0.027 27.723154,2.7270033 24.86365,7.2500088 L 2.4326227,42.733052 c -3.06650377,4.850506 -3.24350398,10.747513 -0.4745006,15.774019 2.7690034,5.027007 7.8485096,8.02801 13.5875169,8.02801 h 4.251505 v 10.409513 c 0,38.094546 30.992538,69.087586 69.087584,69.087586 H 109.83475 V 163.2617 H 88.884728 c -38.094546,0 -69.087584,30.99204 -69.087584,69.08708 v 5.49951 c 0,10.02401 8.15551,18.17902 18.179022,18.17902 6.405508,0 12.216515,-3.271 15.545519,-8.75001 1.075501,-1.77 0.512501,-4.0765 -1.257501,-5.152 -1.770503,-1.07701 -4.077005,-0.5125 -5.152007,1.2575 -1.957502,3.221 -5.373006,5.1445 -9.136011,5.1445 -5.888507,0 -10.679013,-4.7905 -10.679013,-10.67901 v -5.49951 c 0,-33.95904 27.628034,-61.58707 61.587575,-61.58707 h 78.259092 c 10.01802,0 19.64053,-3.76601 27.01154,-10.45501 3.6035,5.2575 5.717,11.61301 5.717,18.45452 v 3.9165 c -9.80751,6.18051 -21.07902,9.44251 -32.72854,9.44251 H 88.884228 c -20.064024,0 -37.204545,14.98302 -39.870548,34.85205 -0.275501,2.0525 1.165501,3.94 3.218504,4.2155 0.169,0.0225 0.337,0.0335 0.5035,0.0335 1.849002,0 3.459004,-1.368 3.712005,-3.252 2.168502,-16.16152 16.113519,-28.34904 32.437039,-28.34904 h 20.950022 v 38.22755 c 0,10.02401 8.15551,18.17902 18.17903,18.17902 10.02401,0 18.17902,-8.15501 18.17902,-18.17902 v -38.22755 h 20.95002 c 11.51652,0 22.70203,-2.8475 32.72854,-8.26651 v 46.49406 c 0,10.02401 8.15551,18.17902 18.17953,18.17902 10.02401,0 18.17902,-8.15501 18.17902,-18.17902 v -59.08657 c 0,-8.47801 -1.5385,-16.60252 -4.34501,-24.11403 2.88301,-7.71151 4.34501,-15.81602 4.34501,-24.11453 V 66.535081 h 4.2515 c 5.73901,0 10.81852,-3.001003 13.58752,-8.02801 2.7695,-5.026506 2.5925,-10.923513 -0.474,-15.774019 z M 15.545139,59.035072 c -2.964504,0 -5.5880071,-1.550502 -7.0185089,-4.146505 C 7.0966284,52.292564 7.1881285,49.24656 8.7721304,46.741057 L 31.203158,11.258014 c 1.498502,-2.3710032 3.967505,-3.7310048 6.772508,-3.7310048 2.805004,0 5.274007,1.3600016 6.772508,3.7310048 l 22.431028,35.483043 c 1.584002,2.505503 1.676002,5.551507 0.2455,8.14751 -1.430502,2.596003 -4.054005,4.146505 -7.018008,4.146505 z M 109.83475,138.53217 H 88.884728 c -33.959541,0 -61.587575,-27.62803 -61.587575,-61.587576 V 66.535081 h 21.359026 v 10.409513 c 0,22.182027 18.046522,40.229046 40.228549,40.229046 h 20.950022 z m 28.85804,99.31612 c 0,5.88851 -4.79051,10.67901 -10.67901,10.67901 -5.88851,0 -10.67902,-4.7905 -10.67902,-10.67901 v -38.22755 h 21.35853 v 38.22755 z m 0,-74.58659 H 117.33426 V 66.535081 h 21.35853 z m 28.45053,0 H 146.1933 v -17.22952 h 20.95002 c 8.50901,0 16.26852,3.2665 22.09503,8.60851 -6.01451,5.51401 -13.89302,8.62101 -22.09503,8.62101 z m 61.58758,74.58659 c 0,5.88851 -4.79051,10.67901 -10.67901,10.67901 -5.88851,0 -10.67952,-4.7905 -10.67952,-10.67901 v -59.08707 c 0,-10.18901 -3.815,-19.49953 -10.08201,-26.59553 -0.0215,-0.0245 -0.0415,-0.05 -0.064,-0.074 -7.37501,-8.30951 -18.12452,-13.55952 -30.08204,-13.55952 H 146.1943 v -21.35853 h 20.95002 c 12.71452,0 24.54103,3.87351 34.36305,10.50102 0.0165,0.011 0.0335,0.022 0.05,0.033 16.38352,11.07901 27.17453,29.82953 27.17453,51.05306 v 59.08757 z m 0,-107.31513 c 0,4.74801 -0.5395,9.42351 -1.603,13.98052 -4.94851,-8.63401 -11.70852,-16.10202 -19.75603,-21.88553 V 66.535081 h 21.35903 z m 18.77002,-75.644593 c -1.4305,2.596003 -4.054,4.146505 -7.01851,4.146505 h -44.86205 c -2.964,0 -5.58751,-1.550502 -7.01801,-4.146505 -1.43,-2.596003 -1.3385,-5.642007 0.2455,-8.14751 l 22.43103,-35.483043 c 1.4985,-2.3710032 3.967,-3.7310048 6.77251,-3.7310048 2.805,0 5.274,1.3600016 6.7725,3.7310048 l 22.43103,35.483043 c 1.584,2.505003 1.676,5.551007 0.246,8.14751 z"
     id="path14"
     style="stroke-width:0.500001" />
</svg>
